<svg aria-hidden="true" version="1.1" xmlns="http://www.w3.org/2000/svg" xmlns:xlink="http://www.w3.org/1999/xlink">
<defs>
<symbol id="icons-facebook" viewBox="0 0 32 32">
<path d="M16 2.667c-7.352 0-13.333 5.981-13.333 13.333s5.981 13.333 13.333 13.333c7.352 0 13.333-5.981 13.333-13.333s-5.981-13.333-13.333-13.333zM16 4.667c6.271 0 11.333 5.062 11.333 11.333 0 5.587-4.022 10.204-9.333 11.147v-7.814h2.417c0.336 0 0.62-0.251 0.661-0.585l0.25-2c0.024-0.189-0.036-0.379-0.163-0.523s-0.307-0.225-0.499-0.225h-2.667v-2.333c0-0.735 0.598-1.333 1.333-1.333h1.333c0.368 0 0.667-0.298 0.667-0.667v-2.25c0-0.345-0.263-0.633-0.607-0.664-0.039-0.003-0.98-0.086-2.171-0.086-2.938 0-4.556 1.744-4.556 4.911v2.422h-2.667c-0.368 0-0.667 0.298-0.667 0.667v2c0 0.369 0.299 0.667 0.667 0.667h2.667v7.814c-5.311-0.943-9.333-5.56-9.333-11.147 0-6.271 5.062-11.333 11.333-11.333z"></path>
</symbol>
<symbol id="icons-instagram" viewBox="0 0 32 32">
<path d="M11 3.333c-4.222 0-7.667 3.444-7.667 7.667v10c0 4.222 3.444 7.667 7.667 7.667h10c4.222 0 7.667-3.445 7.667-7.667v-10c0-4.223-3.445-7.667-7.667-7.667h-10zM11 5.333h10c3.141 0 5.667 2.525 5.667 5.667v10c0 3.141-2.526 5.667-5.667 5.667h-10c-3.141 0-5.667-2.526-5.667-5.667v-10c0-3.142 2.525-5.667 5.667-5.667zM22.667 8c-0.737 0-1.333 0.597-1.333 1.333s0.597 1.333 1.333 1.333c0.737 0 1.333-0.597 1.333-1.333s-0.597-1.333-1.333-1.333zM16 9.333c-3.67 0-6.667 2.997-6.667 6.667s2.997 6.667 6.667 6.667c3.67 0 6.667-2.997 6.667-6.667s-2.997-6.667-6.667-6.667zM16 11.333c2.589 0 4.667 2.078 4.667 4.667s-2.078 4.667-4.667 4.667c-2.589 0-4.667-2.078-4.667-4.667s2.078-4.667 4.667-4.667z"></path>
</symbol>
<symbol id="icons-gmail" viewBox="0 0 32 32">
<path d="M7 5.333c-2.381 0-4.333 1.952-4.333 4.333v12.667c0 2.381 1.952 4.333 4.333 4.333h18c2.381 0 4.333-1.952 4.333-4.333v-12.667c0-2.381-1.952-4.333-4.333-4.333h-18zM7.648 7.333h16.703l-8.352 4.514-8.352-4.514zM5.147 8.254l10.378 5.609c0.137 0.076 0.301 0.12 0.475 0.12s0.338-0.044 0.48-0.123l-0.005 0.003 10.378-5.609c0.298 0.392 0.48 0.877 0.48 1.413v12.667c0 1.186-0.862 2.14-2 2.301v-11.473c-0.001-0.552-0.448-0.999-1-0.999-0.174 0-0.338 0.044-0.48 0.123l0.005-0.003-7.858 4.247-7.858-4.247c-0.138-0.076-0.302-0.121-0.477-0.121-0.001 0-0.002 0-0.002 0h0c-0.551 0.002-0.996 0.449-0.996 1v0 11.473c-1.138-0.16-2-1.115-2-2.301v-12.667c0-0.536 0.183-1.021 0.48-1.413zM8.667 14.84l6.858 3.707c0.137 0.076 0.301 0.12 0.475 0.12s0.338-0.044 0.48-0.123l-0.005 0.003 6.858-3.707v9.827h-14.667v-9.827z"></path>
</symbol>
</defs>
</svg>
